<?xml version="1.0" encoding="utf-8"?>
<!-- Generator: Adobe Illustrator 25.2.1, SVG Export Plug-In . SVG Version: 6.00 Build 0)  -->
<svg version="1.1" id="Layer_1" xmlns="http://www.w3.org/2000/svg" xmlns:xlink="http://www.w3.org/1999/xlink" x="0px" y="0px"
	 viewBox="0 0 3575.05 537.79" style="enable-background:new 0 0 3575.05 537.79;" xml:space="preserve">
<style type="text/css">
	.st0{clip-path:url(#SVGID_3_);fill:url(#SVGID_4_);}
	.st1{clip-path:url(#SVGID_7_);fill:url(#SVGID_8_);}
	.st2{fill:#FFFFFF;}
	.st3{clip-path:url(#SVGID_11_);fill:url(#SVGID_12_);}
	.st4{clip-path:url(#SVGID_15_);fill:url(#SVGID_16_);}
</style>
<g>
	<path class="st2" d="M687.12,380.99c-20.12,0-35.93-5.6-47.42-16.81s-17.24-26.48-17.24-45.84v-98.29h35.92v98
		c0,10.16,2.49,17.97,7.48,23.43c4.98,5.46,12.07,8.19,21.27,8.19c9,0,16.04-2.73,21.12-8.19c5.07-5.46,7.62-13.27,7.62-23.43v-98
		h35.93v98.29c0,19.36-5.85,34.63-17.53,45.84C722.57,375.39,706.85,380.99,687.12,380.99z"/>
	<path class="st2" d="M780.24,378.12V220.05h35.06v30.18h9.77l-9.77,8.33c0-12.84,3.78-22.94,11.35-30.32
		c7.57-7.37,17.96-11.06,31.18-11.06c15.52,0,27.92,5.17,37.22,15.52c9.29,10.35,13.94,24.24,13.94,41.67v103.75h-35.93V278.1
		c0-9.58-2.49-16.96-7.48-22.13s-11.88-7.76-20.69-7.76c-9.01,0-16.05,2.69-21.13,8.05c-5.08,5.37-7.61,13.03-7.61,22.99v98.87
		H780.24z"/>
	<path class="st2" d="M992.85,380.7c-12.07,0-22.61-1.92-31.61-5.75c-9.01-3.83-16.05-9.15-21.12-15.95c-5.08-6.8-7.81-14.8-8.19-24
		h35.92c0.38,4.98,2.83,9.01,7.33,12.07c4.5,3.07,10.39,4.6,17.67,4.6h12.65c8.81,0,15.42-1.72,19.83-5.17
		c4.4-3.45,6.61-8.14,6.61-14.08c0-5.55-1.96-9.92-5.89-13.08c-3.93-3.16-10.01-5.22-18.25-6.18l-19.54-2.87
		c-18.01-2.49-31.24-7.28-39.66-14.37c-8.44-7.08-12.65-17.72-12.65-31.9c0-14.75,4.98-26.2,14.95-34.35
		c9.96-8.14,24.62-12.21,43.97-12.21h10.92c17.63,0,31.71,3.93,42.25,11.78c10.54,7.86,16.19,18.39,16.96,31.61h-35.93
		c-0.57-4.21-2.92-7.66-7.04-10.35c-4.12-2.68-9.53-4.02-16.24-4.02h-10.92c-8.24,0-14.23,1.49-17.97,4.46
		c-3.74,2.97-5.61,7.33-5.61,13.08c0,5.37,1.63,9.34,4.89,11.93c3.25,2.59,8.52,4.46,15.8,5.61l20.41,2.87
		c18.77,2.69,32.62,7.72,41.53,15.09c8.91,7.38,13.37,18.25,13.37,32.62c0,15.33-5.22,27.26-15.67,35.78
		c-10.44,8.53-25.82,12.79-46.12,12.79H992.85z"/>
	<path class="st2" d="M1090.11,378.12v-32.76h55.18v-92.83h-47.99v-32.48h82.48v125.31h48.86v32.76H1090.11z M1159.66,193.61
		c-7.29,0-13.03-1.87-17.24-5.6c-4.22-3.74-6.33-8.77-6.33-15.09c0-6.33,2.11-11.35,6.33-15.09c4.21-3.74,9.96-5.61,17.24-5.61
		c7.28,0,13.02,1.87,17.24,5.61c4.22,3.74,6.33,8.76,6.33,15.09c0,6.32-2.11,11.35-6.33,15.09
		C1172.69,191.74,1166.94,193.61,1159.66,193.61z"/>
	<path class="st2" d="M1267.27,429.85v-29.89h46.84c8.05,0,14.08-1.97,18.1-5.89c4.03-3.93,6.04-9.53,6.04-16.82v-11.78l0.57-29.6
		h-7.76l7.76-7.76c0,12.84-3.79,22.85-11.35,30.03c-7.57,7.18-17.77,10.78-30.61,10.78c-16.1,0-28.88-5.46-38.37-16.38
		c-9.48-10.92-14.23-25.67-14.23-44.26v-30.75c0-18.39,4.74-33.05,14.23-43.97c9.48-10.92,22.27-16.38,38.37-16.38
		c12.84,0,23.04,3.59,30.61,10.78c7.57,7.18,11.35,17.2,11.35,30.03l-7.76-7.76h7.76l-0.86-30.18h35.93v158.07
		c0,15.9-5.27,28.5-15.8,37.79c-10.54,9.29-25.01,13.94-43.4,13.94H1267.27z M1308.94,337.88c9.2,0,16.34-2.73,21.41-8.19
		c5.07-5.46,7.61-13.08,7.61-22.85v-27.59c0-9.77-2.54-17.39-7.61-22.85c-5.08-5.46-12.22-8.19-21.41-8.19
		c-9.2,0-16.28,2.69-21.27,8.05c-4.98,5.37-7.47,13.03-7.47,22.99v27.59c0,9.96,2.49,17.63,7.47,22.99
		C1292.65,335.2,1299.74,337.88,1308.94,337.88z"/>
	<path class="st2" d="M1402.83,378.12V220.05h35.06v30.18h9.77l-9.77,8.33c0-12.84,3.78-22.94,11.35-30.32
		c7.57-7.37,17.96-11.06,31.18-11.06c15.52,0,27.92,5.17,37.22,15.52c9.29,10.35,13.94,24.24,13.94,41.67v103.75h-35.93V278.1
		c0-9.58-2.49-16.96-7.48-22.13c-4.98-5.17-11.88-7.76-20.69-7.76c-9.01,0-16.05,2.69-21.13,8.05c-5.08,5.37-7.61,13.03-7.61,22.99
		v98.87H1402.83z"/>
	<path class="st2" d="M1623.69,380.99c-13.41,0-25.1-2.59-35.06-7.76c-9.96-5.18-17.67-12.41-23.14-21.7
		c-5.46-9.29-8.19-20.16-8.19-32.62v-39.66c0-12.45,2.73-23.33,8.19-32.62c5.46-9.29,13.17-16.52,23.14-21.7
		c9.96-5.17,21.65-7.76,35.06-7.76c13.22,0,24.76,2.59,34.63,7.76c9.87,5.18,17.53,12.41,22.99,21.7
		c5.46,9.29,8.19,20.17,8.19,32.62v28.45h-97.43v11.21c0,11.11,2.68,19.5,8.05,25.15c5.36,5.65,13.32,8.48,23.86,8.48
		c8.04,0,14.56-1.39,19.54-4.17c4.98-2.77,8.14-6.85,9.49-12.21h35.35c-2.69,13.61-9.92,24.48-21.7,32.62
		C1654.88,376.92,1640.55,380.99,1623.69,380.99z M1654.73,287.59v-8.62c0-10.92-2.59-19.3-7.76-25.15
		c-5.17-5.84-12.93-8.76-23.28-8.76c-10.35,0-18.21,2.97-23.57,8.91c-5.37,5.94-8.05,14.37-8.05,25.29v6.03l65.24-0.57
		L1654.73,287.59z"/>
	<path class="st2" d="M1765.93,380.99c-15.71,0-28.4-5.46-38.08-16.38c-9.68-10.92-14.52-25.58-14.52-43.97v-42.82
		c0-18.58,4.79-33.34,14.37-44.26c9.58-10.92,22.32-16.38,38.22-16.38c13.03,0,23.38,3.69,31.04,11.06
		c7.66,7.38,11.5,17.49,11.5,30.32l-8.05-8.33h8.33l-1.15-37.65v-44.26h35.93v209.8h-35.06v-30.18h-8.05l8.05-8.33
		c0,12.84-3.84,22.95-11.5,30.32C1789.31,377.31,1778.96,380.99,1765.93,380.99z M1778.58,349.95c9.2,0,16.34-2.73,21.41-8.19
		c5.07-5.46,7.61-13.08,7.61-22.85v-39.66c0-9.77-2.54-17.39-7.61-22.85c-5.08-5.46-12.22-8.19-21.41-8.19
		c-9.2,0-16.38,2.69-21.55,8.05c-5.18,5.37-7.76,13.03-7.76,22.99v39.66c0,9.96,2.59,17.63,7.76,22.99
		C1762.19,347.27,1769.38,349.95,1778.58,349.95z"/>
	<path class="st2" d="M1870.31,417.78V385.3h137.95v32.48H1870.31z"/>
	<path class="st2" d="M2082.01,380.99c-16.29,0-29.12-4.31-38.51-12.93c-9.39-8.62-14.08-20.21-14.08-34.78
		c0-15.52,5.17-27.49,15.52-35.92c10.35-8.43,25.01-12.65,43.97-12.65h39.37V271.2c0-7.66-2.49-13.65-7.48-17.96
		c-4.98-4.31-11.78-6.47-20.4-6.47c-7.86,0-14.33,1.73-19.4,5.18c-5.08,3.45-8.19,8.14-9.34,14.08h-35.06
		c1.72-14.95,8.43-26.83,20.12-35.64c11.69-8.81,26.63-13.22,44.84-13.22c19.35,0,34.63,4.84,45.84,14.51
		c11.21,9.68,16.82,22.75,16.82,39.23v107.2h-34.78v-27.59h-5.75l5.75-7.76c0,11.69-4.31,20.98-12.93,27.88
		C2107.87,377.55,2096.38,380.99,2082.01,380.99z M2093.79,353.98c10.15,0,18.44-2.59,24.86-7.76c6.41-5.18,9.63-11.88,9.63-20.12
		v-19.25h-38.8c-7.28,0-13.12,2.11-17.53,6.32c-4.41,4.22-6.61,9.77-6.61,16.67c0,7.47,2.49,13.36,7.47,17.67
		C2077.79,351.82,2084.78,353.98,2093.79,353.98z"/>
	<path class="st2" d="M2261.95,378.12c-10.35,0-19.4-2.11-27.16-6.32c-7.76-4.22-13.85-10.2-18.25-17.97
		c-4.41-7.76-6.61-16.71-6.61-26.87V200.79h-52.02v-32.48h87.94v158.64c0,5.75,1.68,10.3,5.03,13.65c3.35,3.35,7.9,5.03,13.65,5.03
		h46.27v32.48H2261.95z"/>
	<path class="st2" d="M2348.4,429.85v-29.89h46.84c8.05,0,14.08-1.97,18.1-5.89c4.03-3.93,6.04-9.53,6.04-16.82v-11.78l0.57-29.6
		h-7.76l7.76-7.76c0,12.84-3.79,22.85-11.35,30.03s-17.77,10.78-30.61,10.78c-16.1,0-28.88-5.46-38.37-16.38
		c-9.48-10.92-14.23-25.67-14.23-44.26v-30.75c0-18.39,4.74-33.05,14.23-43.97c9.48-10.92,22.27-16.38,38.37-16.38
		c12.84,0,23.04,3.59,30.61,10.78s11.35,17.2,11.35,30.03l-7.76-7.76h7.76l-0.86-30.18h35.93v158.07c0,15.9-5.27,28.5-15.8,37.79
		c-10.54,9.29-25.01,13.94-43.4,13.94H2348.4z M2390.07,337.88c9.2,0,16.34-2.73,21.41-8.19c5.07-5.46,7.61-13.08,7.61-22.85v-27.59
		c0-9.77-2.54-17.39-7.61-22.85c-5.08-5.46-12.22-8.19-21.41-8.19c-9.2,0-16.28,2.69-21.27,8.05c-4.98,5.37-7.47,13.03-7.47,22.99
		v27.59c0,9.96,2.49,17.63,7.47,22.99S2380.88,337.88,2390.07,337.88z"/>
	<path class="st2" d="M2547.62,380.7c-13.41,0-25.1-2.54-35.06-7.61c-9.96-5.07-17.63-12.26-22.99-21.56
		c-5.36-9.29-8.05-20.26-8.05-32.91v-39.09c0-12.65,2.68-23.61,8.05-32.91c5.37-9.29,13.03-16.48,22.99-21.56
		c9.96-5.07,21.65-7.61,35.06-7.61c13.6,0,25.34,2.54,35.21,7.61c9.87,5.08,17.49,12.27,22.85,21.56
		c5.36,9.29,8.05,20.17,8.05,32.62v39.37c0,12.65-2.69,23.62-8.05,32.91c-5.36,9.29-12.98,16.48-22.85,21.56
		S2561.22,380.7,2547.62,380.7z M2547.62,349.38c9.58,0,17-2.63,22.27-7.9c5.27-5.27,7.9-12.89,7.9-22.85v-39.09
		c0-10.15-2.64-17.82-7.9-22.99c-5.27-5.18-12.69-7.76-22.27-7.76c-9.39,0-16.77,2.59-22.13,7.76c-5.36,5.17-8.05,12.84-8.05,22.99
		v39.09c0,9.96,2.68,17.58,8.05,22.85C2530.85,346.75,2538.23,349.38,2547.62,349.38z"/>
	<path class="st2" d="M2642.15,378.12V220.05h33.91v30.18h8.91l-10.63,18.39c0-17.05,3.83-29.89,11.5-38.51
		c7.66-8.63,18.97-12.93,33.91-12.93c17.05,0,30.46,5.27,40.23,15.8c9.77,10.54,14.66,25.1,14.66,43.69v11.5H2737v-8.91
		c0-10.15-2.64-18.01-7.9-23.57c-5.27-5.55-12.5-8.33-21.7-8.33c-9.39,0-16.62,2.78-21.7,8.33c-5.08,5.56-7.62,13.41-7.62,23.57
		v98.87H2642.15z"/>
	<path class="st2" d="M2789.61,378.12v-32.76h55.18v-92.83h-47.99v-32.48h82.48v125.31h48.86v32.76H2789.61z M2859.17,193.61
		c-7.29,0-13.03-1.87-17.25-5.6c-4.22-3.74-6.33-8.77-6.33-15.09c0-6.33,2.11-11.35,6.33-15.09c4.21-3.74,9.96-5.61,17.25-5.61
		c7.28,0,13.02,1.87,17.24,5.61c4.22,3.74,6.33,8.76,6.33,15.09c0,6.32-2.11,11.35-6.33,15.09
		C2872.19,191.74,2866.44,193.61,2859.17,193.61z"/>
	<path class="st2" d="M3014.01,378.12c-15.14,0-26.97-4.21-35.5-12.65c-8.53-8.43-12.79-20.02-12.79-34.78v-78.17h-42.82v-32.48
		h42.82V175.5h36.22v44.55h60.64v32.48h-60.64v78.17c0,9.96,4.88,14.95,14.65,14.95h43.11v32.48H3014.01z"/>
	<path class="st2" d="M3088.41,378.12v-209.8h35.93v51.73l-0.86,30.18h9.77l-9.77,8.33c0-13.02,3.78-23.18,11.35-30.46
		c7.57-7.28,17.96-10.92,31.18-10.92c15.52,0,27.92,5.17,37.22,15.52c9.29,10.35,13.94,24.24,13.94,41.67v103.75h-35.93V278.1
		c0-9.58-2.48-16.96-7.47-22.13c-4.98-5.17-11.98-7.76-20.98-7.76c-8.81,0-15.76,2.69-20.84,8.05c-5.08,5.37-7.61,13.03-7.61,22.99
		v98.87H3088.41z"/>
	<path class="st2" d="M3242.4,378.12V220.05h29.32v21.27h6.04l-4.88,5.18c0-8.81,2.39-15.9,7.18-21.27
		c4.78-5.37,11.11-8.05,18.97-8.05c8.24,0,14.84,3.21,19.83,9.63c4.99,6.42,7.47,15.09,7.47,26.01l-6.32-11.5h9.77l-3.74,5.18
		c0-8.81,2.54-15.9,7.62-21.27c5.07-5.37,11.64-8.05,19.68-8.05c9.58,0,17.29,3.74,23.14,11.21c5.85,7.48,8.77,17.24,8.77,29.32
		v120.42h-31.62V260.29c0-5.18-1.14-9.24-3.44-12.22c-2.3-2.97-5.66-4.46-10.07-4.46c-4.21,0-7.52,1.44-9.91,4.31
		c-2.4,2.88-3.59,7-3.59,12.36v117.83h-25.88V260.29c0-5.37-1.14-9.48-3.44-12.36c-2.3-2.87-5.65-4.31-10.06-4.31
		c-4.41,0-7.72,1.44-9.92,4.31c-2.2,2.88-3.3,7-3.3,12.36v117.83H3242.4z"/>
	<path class="st2" d="M3465.71,380.7c-12.07,0-22.6-1.92-31.61-5.75c-9.01-3.83-16.05-9.15-21.12-15.95c-5.08-6.8-7.81-14.8-8.2-24
		h35.93c0.38,4.98,2.82,9.01,7.33,12.07c4.5,3.07,10.39,4.6,17.67,4.6h12.65c8.81,0,15.42-1.72,19.83-5.17
		c4.4-3.45,6.61-8.14,6.61-14.08c0-5.55-1.96-9.92-5.89-13.08c-3.93-3.16-10.01-5.22-18.25-6.18l-19.55-2.87
		c-18.01-2.49-31.23-7.28-39.66-14.37c-8.43-7.08-12.64-17.72-12.64-31.9c0-14.75,4.98-26.2,14.94-34.35
		c9.96-8.14,24.62-12.21,43.97-12.21h10.92c17.63,0,31.71,3.93,42.25,11.78c10.54,7.86,16.19,18.39,16.95,31.61h-35.92
		c-0.57-4.21-2.92-7.66-7.04-10.35c-4.12-2.68-9.53-4.02-16.24-4.02h-10.92c-8.24,0-14.23,1.49-17.96,4.46
		c-3.74,2.97-5.61,7.33-5.61,13.08c0,5.37,1.62,9.34,4.88,11.93s8.52,4.46,15.81,5.61l20.41,2.87c18.77,2.69,32.62,7.72,41.53,15.09
		c8.91,7.38,13.36,18.25,13.36,32.62c0,15.33-5.22,27.26-15.66,35.78c-10.44,8.53-25.82,12.79-46.13,12.79H3465.71z"/>
</g>
<g>
	<defs>
		<path id="SVGID_9_" d="M67.35,62.17c0-2.81,2.26-5.06,5-5.06c2.81,0,5.06,2.26,5.06,5.06c0,2.74-2.26,5-5.06,5
			C69.6,67.17,67.35,64.91,67.35,62.17z M127.24,67.17c2.81,0,5.06-2.26,5.06-5c0-2.81-2.26-5.06-5.06-5.06c-2.74,0-5,2.26-5,5.06
			C122.24,64.91,124.5,67.17,127.24,67.17z M182.2,67.17c2.74,0,5-2.26,5-5c0-2.81-2.26-5.06-5-5.06c-2.81,0-5.06,2.26-5.06,5.06
			C177.14,64.91,179.4,67.17,182.2,67.17z M237.07,70.21c4.46,0,8.07-3.61,8.07-8.07s-3.61-8.07-8.07-8.07
			c-4.46,0-8.07,3.61-8.07,8.07S232.62,70.21,237.07,70.21z M291.98,70.21c4.46,0,8.07-3.61,8.07-8.07s-3.61-8.07-8.07-8.07
			s-8.07,3.61-8.07,8.07S287.52,70.21,291.98,70.21z M346.88,70.21c4.46,0,8.07-3.61,8.07-8.07s-3.61-8.07-8.07-8.07
			s-8.07,3.61-8.07,8.07S342.42,70.21,346.88,70.21z M401.78,70.21c4.46,0,8.07-3.61,8.07-8.07s-3.61-8.07-8.07-8.07
			s-8.07,3.61-8.07,8.07S397.32,70.21,401.78,70.21z M456.68,70.21c4.46,0,8.07-3.61,8.07-8.07s-3.61-8.07-8.07-8.07
			s-8.07,3.61-8.07,8.07S452.23,70.21,456.68,70.21z M511.58,70.21c4.46,0,8.07-3.61,8.07-8.07s-3.61-8.07-8.07-8.07
			c-4.46,0-8.07,3.61-8.07,8.07S507.13,70.21,511.58,70.21z M72.35,122.06c2.81,0,5.06-2.26,5.06-5c0-2.81-2.26-5.06-5.06-5.06
			c-2.74,0-5,2.26-5,5.06C67.35,119.81,69.6,122.06,72.35,122.06z M127.27,125.11c4.46,0,8.07-3.61,8.07-8.07s-3.61-8.07-8.07-8.07
			c-4.46,0-8.07,3.61-8.07,8.07S122.81,125.11,127.27,125.11z M182.17,125.11c4.46,0,8.07-3.61,8.07-8.07s-3.61-8.07-8.07-8.07
			c-4.46,0-8.07,3.61-8.07,8.07S177.72,125.11,182.17,125.11z M237.07,125.11c4.46,0,8.07-3.61,8.07-8.07s-3.61-8.07-8.07-8.07
			c-4.46,0-8.07,3.61-8.07,8.07S232.62,125.11,237.07,125.11z M291.98,125.11c4.46,0,8.07-3.61,8.07-8.07s-3.61-8.07-8.07-8.07
			s-8.07,3.61-8.07,8.07S287.52,125.11,291.98,125.11z M346.88,125.11c4.46,0,8.07-3.61,8.07-8.07s-3.61-8.07-8.07-8.07
			s-8.07,3.61-8.07,8.07S342.42,125.11,346.88,125.11z M401.78,125.11c4.46,0,8.07-3.61,8.07-8.07s-3.61-8.07-8.07-8.07
			s-8.07,3.61-8.07,8.07S397.32,125.11,401.78,125.11z M456.68,125.11c4.46,0,8.07-3.61,8.07-8.07s-3.61-8.07-8.07-8.07
			s-8.07,3.61-8.07,8.07S452.23,125.11,456.68,125.11z M511.58,125.11c4.46,0,8.07-3.61,8.07-8.07s-3.61-8.07-8.07-8.07
			c-4.46,0-8.07,3.61-8.07,8.07S507.13,125.11,511.58,125.11z M72.37,180.01c4.46,0,8.07-3.61,8.07-8.07c0-4.46-3.61-8.07-8.07-8.07
			c-4.46,0-8.07,3.61-8.07,8.07C64.3,176.4,67.91,180.01,72.37,180.01z M127.27,180.01c4.46,0,8.07-3.61,8.07-8.07
			c0-4.46-3.61-8.07-8.07-8.07c-4.46,0-8.07,3.61-8.07,8.07C119.2,176.4,122.81,180.01,127.27,180.01z M182.17,180.01
			c4.46,0,8.07-3.61,8.07-8.07c0-4.46-3.61-8.07-8.07-8.07c-4.46,0-8.07,3.61-8.07,8.07C174.1,176.4,177.72,180.01,182.17,180.01z
			 M237.07,157.78c-7.82,0-14.17,6.36-14.17,14.17c0,7.81,6.36,14.17,14.17,14.17c7.81,0,14.17-6.36,14.17-14.17
			C251.24,164.13,244.89,157.78,237.07,157.78z M291.98,157.78c-7.81,0-14.17,6.36-14.17,14.17c0,7.81,6.36,14.17,14.17,14.17
			c7.81,0,14.17-6.36,14.17-14.17C306.14,164.13,299.79,157.78,291.98,157.78z M346.88,156.25c-8.65,0-15.69,7.04-15.69,15.7
			c0,8.65,7.04,15.69,15.69,15.69c8.65,0,15.69-7.04,15.69-15.69C362.57,163.29,355.53,156.25,346.88,156.25z M401.78,156.25
			c-8.65,0-15.69,7.04-15.69,15.7c0,8.65,7.04,15.69,15.69,15.69s15.69-7.04,15.69-15.69C417.47,163.29,410.43,156.25,401.78,156.25
			z M456.68,154.73c-9.49,0-17.22,7.73-17.22,17.22s7.72,17.22,17.22,17.22c9.49,0,17.22-7.72,17.22-17.22
			S466.18,154.73,456.68,154.73z M511.58,189.16c9.49,0,17.22-7.72,17.22-17.22s-7.72-17.22-17.22-17.22
			c-9.49,0-17.22,7.73-17.22,17.22S502.09,189.16,511.58,189.16z M72.37,234.92c4.46,0,8.07-3.61,8.07-8.07s-3.61-8.07-8.07-8.07
			c-4.46,0-8.07,3.61-8.07,8.07S67.91,234.92,72.37,234.92z M127.27,216.49c-5.71,0-10.36,4.65-10.36,10.36
			c0,5.71,4.65,10.36,10.36,10.36c5.71,0,10.36-4.65,10.36-10.36C137.63,221.14,132.98,216.49,127.27,216.49z M182.17,214.51
			c-6.81,0-12.34,5.54-12.34,12.34c0,6.8,5.54,12.34,12.34,12.34c6.8,0,12.34-5.54,12.34-12.34
			C194.51,220.04,188.98,214.51,182.17,214.51z M237.07,212.68c-7.82,0-14.17,6.36-14.17,14.17c0,7.81,6.36,14.17,14.17,14.17
			c7.81,0,14.17-6.36,14.17-14.17C251.24,219.03,244.89,212.68,237.07,212.68z M291.98,212.68c-7.81,0-14.17,6.36-14.17,14.17
			c0,7.81,6.36,14.17,14.17,14.17c7.81,0,14.17-6.36,14.17-14.17C306.14,219.03,299.79,212.68,291.98,212.68z M346.88,211.15
			c-8.65,0-15.69,7.04-15.69,15.7c0,8.65,7.04,15.69,15.69,15.69c8.65,0,15.69-7.04,15.69-15.69
			C362.57,218.19,355.53,211.15,346.88,211.15z M401.78,211.15c-8.65,0-15.69,7.04-15.69,15.7c0,8.65,7.04,15.69,15.69,15.69
			s15.69-7.04,15.69-15.69C417.47,218.19,410.43,211.15,401.78,211.15z M456.68,209.63c-9.49,0-17.22,7.73-17.22,17.22
			s7.72,17.22,17.22,17.22c9.49,0,17.22-7.72,17.22-17.22S466.18,209.63,456.68,209.63z M511.58,209.63
			c-9.49,0-17.22,7.73-17.22,17.22s7.72,17.22,17.22,17.22c9.49,0,17.22-7.72,17.22-17.22S521.08,209.63,511.58,209.63z
			 M72.37,272.15c-5.29,0-9.6,4.3-9.6,9.6c0,5.29,4.3,9.59,9.6,9.59c5.29,0,9.59-4.3,9.59-9.59
			C81.96,276.46,77.66,272.15,72.37,272.15z M127.27,271.39c-5.71,0-10.36,4.65-10.36,10.36c0,5.71,4.65,10.36,10.36,10.36
			c5.71,0,10.36-4.65,10.36-10.36C137.63,276.04,132.98,271.39,127.27,271.39z M182.17,269.41c-6.81,0-12.34,5.54-12.34,12.34
			c0,6.8,5.54,12.34,12.34,12.34c6.8,0,12.34-5.54,12.34-12.34C194.51,274.95,188.98,269.41,182.17,269.41z M237.07,267.58
			c-7.82,0-14.17,6.36-14.17,14.17c0,7.81,6.36,14.17,14.17,14.17c7.81,0,14.17-6.36,14.17-14.17
			C251.24,273.94,244.89,267.58,237.07,267.58z M291.98,267.58c-7.81,0-14.17,6.36-14.17,14.17c0,7.81,6.36,14.17,14.17,14.17
			c7.81,0,14.17-6.36,14.17-14.17C306.14,273.94,299.79,267.58,291.98,267.58z M346.88,266.06c-8.65,0-15.69,7.04-15.69,15.7
			c0,8.65,7.04,15.69,15.69,15.69c8.65,0,15.69-7.04,15.69-15.69C362.57,273.1,355.53,266.06,346.88,266.06z M401.78,266.06
			c-8.65,0-15.69,7.04-15.69,15.7c0,8.65,7.04,15.69,15.69,15.69s15.69-7.04,15.69-15.69C417.47,273.1,410.43,266.06,401.78,266.06z
			 M456.68,264.53c-9.49,0-17.22,7.73-17.22,17.22c0,9.49,7.72,17.22,17.22,17.22c9.49,0,17.22-7.72,17.22-17.22
			C473.9,272.26,466.18,264.53,456.68,264.53z M511.58,264.53c-9.49,0-17.22,7.73-17.22,17.22c0,9.49,7.72,17.22,17.22,17.22
			c9.49,0,17.22-7.72,17.22-17.22C528.8,272.26,521.08,264.53,511.58,264.53z M72.37,327.06c-5.29,0-9.6,4.3-9.6,9.6
			c0,5.29,4.3,9.59,9.6,9.59c5.29,0,9.59-4.3,9.59-9.59C81.96,331.36,77.66,327.06,72.37,327.06z M127.27,326.29
			c-5.71,0-10.36,4.65-10.36,10.36c0,5.71,4.65,10.36,10.36,10.36c5.71,0,10.36-4.65,10.36-10.36
			C137.63,330.94,132.98,326.29,127.27,326.29z M182.17,324.31c-6.81,0-12.34,5.54-12.34,12.34c0,6.8,5.54,12.34,12.34,12.34
			c6.8,0,12.34-5.54,12.34-12.34C194.51,329.85,188.98,324.31,182.17,324.31z M237.07,322.48c-7.82,0-14.17,6.36-14.17,14.17
			c0,7.81,6.36,14.17,14.17,14.17c7.81,0,14.17-6.36,14.17-14.17C251.24,328.84,244.89,322.48,237.07,322.48z M291.98,322.48
			c-7.81,0-14.17,6.36-14.17,14.17c0,7.81,6.36,14.17,14.17,14.17c7.81,0,14.17-6.36,14.17-14.17
			C306.14,328.84,299.79,322.48,291.98,322.48z M346.88,320.96c-8.65,0-15.69,7.04-15.69,15.7c0,8.65,7.04,15.69,15.69,15.69
			c8.65,0,15.69-7.04,15.69-15.69C362.57,328,355.53,320.96,346.88,320.96z M401.78,320.96c-8.65,0-15.69,7.04-15.69,15.7
			c0,8.65,7.04,15.69,15.69,15.69s15.69-7.04,15.69-15.69C417.47,328,410.43,320.96,401.78,320.96z M456.68,319.43
			c-9.49,0-17.22,7.73-17.22,17.22c0,9.49,7.72,17.22,17.22,17.22c9.49,0,17.22-7.72,17.22-17.22
			C473.9,327.16,466.18,319.43,456.68,319.43z M511.58,319.43c-9.49,0-17.22,7.73-17.22,17.22c0,9.49,7.72,17.22,17.22,17.22
			c9.49,0,17.22-7.72,17.22-17.22C528.8,327.16,521.08,319.43,511.58,319.43z M72.37,381.96c-5.29,0-9.6,4.3-9.6,9.6
			c0,5.29,4.3,9.59,9.6,9.59c5.29,0,9.59-4.3,9.59-9.59C81.96,386.26,77.66,381.96,72.37,381.96z M127.27,381.2
			c-5.71,0-10.36,4.65-10.36,10.36c0,5.71,4.65,10.36,10.36,10.36c5.71,0,10.36-4.65,10.36-10.36
			C137.63,385.84,132.98,381.2,127.27,381.2z M182.17,379.21c-6.81,0-12.34,5.54-12.34,12.34c0,6.8,5.54,12.34,12.34,12.34
			c6.8,0,12.34-5.54,12.34-12.34C194.51,384.75,188.98,379.21,182.17,379.21z M237.07,377.38c-7.82,0-14.17,6.36-14.17,14.17
			c0,7.81,6.36,14.17,14.17,14.17c7.81,0,14.17-6.36,14.17-14.17C251.24,383.74,244.89,377.38,237.07,377.38z M291.98,377.38
			c-7.81,0-14.17,6.36-14.17,14.17c0,7.81,6.36,14.17,14.17,14.17c7.81,0,14.17-6.36,14.17-14.17
			C306.14,383.74,299.79,377.38,291.98,377.38z M346.88,375.86c-8.65,0-15.69,7.04-15.69,15.7c0,8.65,7.04,15.69,15.69,15.69
			c8.65,0,15.69-7.04,15.69-15.69C362.57,382.9,355.53,375.86,346.88,375.86z M401.78,375.86c-8.65,0-15.69,7.04-15.69,15.7
			c0,8.65,7.04,15.69,15.69,15.69s15.69-7.04,15.69-15.69C417.47,382.9,410.43,375.86,401.78,375.86z M456.68,374.33
			c-9.49,0-17.22,7.73-17.22,17.22c0,9.49,7.72,17.22,17.22,17.22c9.49,0,17.22-7.72,17.22-17.22
			C473.9,382.06,466.18,374.33,456.68,374.33z M511.58,374.33c-9.49,0-17.22,7.73-17.22,17.22c0,9.49,7.72,17.22,17.22,17.22
			c9.49,0,17.22-7.72,17.22-17.22C528.8,382.06,521.08,374.33,511.58,374.33z M127.27,438.39c-4.46,0-8.07,3.61-8.07,8.07
			s3.61,8.07,8.07,8.07c4.46,0,8.07-3.61,8.07-8.07S131.73,438.39,127.27,438.39z M182.17,434.11c-6.81,0-12.34,5.54-12.34,12.34
			c0,6.8,5.54,12.34,12.34,12.34c6.8,0,12.34-5.54,12.34-12.34C194.51,439.65,188.98,434.11,182.17,434.11z M237.07,432.29
			c-7.82,0-14.17,6.36-14.17,14.17c0,7.81,6.36,14.17,14.17,14.17c7.81,0,14.17-6.36,14.17-14.17
			C251.24,438.64,244.89,432.29,237.07,432.29z M291.98,432.29c-7.81,0-14.17,6.36-14.17,14.17c0,7.81,6.36,14.17,14.17,14.17
			c7.81,0,14.17-6.36,14.17-14.17C306.14,438.64,299.79,432.29,291.98,432.29z M346.88,430.76c-8.65,0-15.69,7.04-15.69,15.7
			c0,8.65,7.04,15.69,15.69,15.69c8.65,0,15.69-7.04,15.69-15.69C362.57,437.8,355.53,430.76,346.88,430.76z M401.78,430.76
			c-8.65,0-15.69,7.04-15.69,15.7c0,8.65,7.04,15.69,15.69,15.69s15.69-7.04,15.69-15.69C417.47,437.8,410.43,430.76,401.78,430.76z
			 M456.68,429.24c-9.49,0-17.22,7.73-17.22,17.22c0,9.49,7.72,17.22,17.22,17.22c9.49,0,17.22-7.72,17.22-17.22
			C473.9,436.96,466.18,429.24,456.68,429.24z M511.58,438.39c-4.46,0-8.07,3.61-8.07,8.07s3.61,8.07,8.07,8.07
			c4.46,0,8.07-3.61,8.07-8.07S516.04,438.39,511.58,438.39z M72.35,496.33c-2.74,0-5,2.26-5,5c0,2.81,2.26,5.06,5,5.06
			c2.81,0,5.06-2.26,5.06-5.06C77.41,498.59,75.15,496.33,72.35,496.33z M72.35,441.42c-2.74,0-5,2.26-5,5c0,2.81,2.26,5.06,5,5.06
			c2.81,0,5.06-2.26,5.06-5.06C77.41,443.68,75.15,441.42,72.35,441.42z M127.27,493.29c-4.46,0-8.07,3.61-8.07,8.07
			c0,4.46,3.61,8.07,8.07,8.07c4.46,0,8.07-3.61,8.07-8.07C135.34,496.9,131.73,493.29,127.27,493.29z M182.17,493.29
			c-4.46,0-8.07,3.61-8.07,8.07c0,4.46,3.61,8.07,8.07,8.07c4.46,0,8.07-3.61,8.07-8.07C190.24,496.9,186.63,493.29,182.17,493.29z
			 M237.07,493.29c-4.46,0-8.07,3.61-8.07,8.07c0,4.46,3.61,8.07,8.07,8.07c4.46,0,8.07-3.61,8.07-8.07
			C245.14,496.9,241.53,493.29,237.07,493.29z M291.98,493.29c-4.46,0-8.07,3.61-8.07,8.07c0,4.46,3.61,8.07,8.07,8.07
			s8.07-3.61,8.07-8.07C300.04,496.9,296.43,493.29,291.98,493.29z M346.88,493.29c-4.46,0-8.07,3.61-8.07,8.07
			c0,4.46,3.61,8.07,8.07,8.07s8.07-3.61,8.07-8.07C354.95,496.9,351.33,493.29,346.88,493.29z M401.78,493.29
			c-4.46,0-8.07,3.61-8.07,8.07c0,4.46,3.61,8.07,8.07,8.07s8.07-3.61,8.07-8.07C409.85,496.9,406.24,493.29,401.78,493.29z
			 M456.68,493.29c-4.46,0-8.07,3.61-8.07,8.07c0,4.46,3.61,8.07,8.07,8.07s8.07-3.61,8.07-8.07
			C464.75,496.9,461.14,493.29,456.68,493.29z M511.58,493.29c-4.46,0-8.07,3.61-8.07,8.07c0,4.46,3.61,8.07,8.07,8.07
			c4.46,0,8.07-3.61,8.07-8.07C519.65,496.9,516.04,493.29,511.58,493.29z"/>
	</defs>
	<linearGradient id="SVGID_2_" gradientUnits="userSpaceOnUse" x1="69.8891" y1="505.9877" x2="518.3648" y2="57.512">
		<stop  offset="0" style="stop-color:#00A8DE"/>
		<stop  offset="0.2" style="stop-color:#333391"/>
		<stop  offset="0.4" style="stop-color:#E91388"/>
		<stop  offset="0.6" style="stop-color:#EB2D2E"/>
		<stop  offset="0.8" style="stop-color:#FDE92B"/>
		<stop  offset="1" style="stop-color:#009E54"/>
	</linearGradient>
	<use xlink:href="#SVGID_9_"  style="overflow:visible;fill:url(#SVGID_2_);"/>
	<clipPath id="SVGID_3_">
		<use xlink:href="#SVGID_9_"  style="overflow:visible;"/>
	</clipPath>
	<linearGradient id="SVGID_4_" gradientUnits="userSpaceOnUse" x1="56.3263" y1="518.8376" x2="531.0491" y2="44.1148">
		<stop  offset="0" style="stop-color:#00A8DE"/>
		<stop  offset="0.2" style="stop-color:#333391"/>
		<stop  offset="0.4" style="stop-color:#E91388"/>
		<stop  offset="0.6" style="stop-color:#EB2D2E"/>
		<stop  offset="0.8" style="stop-color:#FDE92B"/>
		<stop  offset="1" style="stop-color:#009E54"/>
	</linearGradient>
	<rect x="54.81" y="45.63" class="st0" width="477.75" height="471.69"/>
</g>
</svg>
